<?xml version="1.0" encoding="utf-8"?>
<!-- Generator: Adobe Illustrator 19.0.0, SVG Export Plug-In . SVG Version: 6.00 Build 0)  -->
<svg version="1.1" id="Layer_1" xmlns="http://www.w3.org/2000/svg" xmlns:xlink="http://www.w3.org/1999/xlink" x="0px" y="0px"
	 viewBox="0 0 214.4 171.7" style="enable-background:new 0 0 214.4 171.7;" xml:space="preserve">
<style type="text/css">
	.st0{fill:#FFFFFF;}
	.st1{fill:#F8F8F8;stroke:#020202;stroke-width:9;stroke-miterlimit:10;}
	.st2{fill:#F9F9F9;stroke:#020202;stroke-width:9;stroke-miterlimit:10;}
</style>
<path class="st0" d="M0,171.7C0,114.4,0,57.2,0,0c71.5,0,143,0,214.4,0c0,57.3,0,114.5,0,171.7C142.9,171.7,71.4,171.7,0,171.7z
	 M126.5,88.1c0.2,0,0.4-0.1,0.7-0.1c0.6,1.7,1.2,3.4,1.7,5.1c1.7,7,3.3,14.1,5,21.1c1,3.9,4.3,6.2,7.7,5.5c3.6-0.7,5.8-3.7,5.4-7.8
	c-0.3-2.7-1-5.4-1.5-8.1c-2.1-10.7-5.2-21-10-30.8c-3.9-7.9-10-12.4-18.7-13.9c-9.4-1.6-18.6-1.5-27.9,0.2
	c-7.8,1.5-14.3,4.8-18.3,12.2c-6.8,12.9-10.1,26.7-12,41c-0.5,3.6,2.3,6.6,5.8,7.1c3.2,0.5,6.4-1.7,7.3-5.1c0.4-1.7,0.5-3.5,0.9-5.2
	c1.8-7.8,3.7-15.6,5.6-23.4c0.4,0.1,0.8,0.1,1.2,0.2c0,1.3,0,2.6,0,3.9c0.5,23.5,1,46.9,1.6,70.4c0.2,5.9,3.7,9.3,8.8,8.9
	c4.8-0.3,7.6-4.3,7.4-9.9c-0.5-10.9-1-21.7-1.4-32.6c-0.1-3.6,0-7.1,0-10.6c4.9,0,9.5,0,14.2,0c0,1.6,0,3,0,4.3
	c-0.5,13.1-1,26.2-1.5,39.3c-0.2,5.3,2.2,8.8,6.5,9.4c5.3,0.8,9.3-2.6,9.4-8.5c0.7-23,1.3-45.9,1.9-68.9
	C126.4,90.8,126.5,89.5,126.5,88.1z M177.2,110.6c0,6.6,0.1,13.2,0,19.7c-0.2,6.9-0.7,13.7-1,20.6c-0.2,4.5,2.6,7.7,6.7,8
	c4.1,0.3,7.2-2.3,7.8-6.8c0.2-1.6,0.3-3.2,0.4-4.9c0.4-14.2,0.9-28.5,1.2-42.7c0.2-6.5,0-13,0-19.5c0.3,0,0.6-0.1,1-0.1
	c0.5,1.6,1.2,3.2,1.6,4.9c1.5,6.3,2.9,12.6,4.5,18.9c0.9,3.5,3.6,5.3,6.9,4.8c3.1-0.5,5.5-3.2,5-6.4c-2.4-13.4-5.3-26.7-12.2-38.7
	c-2.8-4.8-7-7.8-12.3-9.1c-11-2.7-22-2.4-32.9,0.7c-4.2,1.2-7.8,3.4-10.1,7.2c-0.6,1-0.7,2.8-0.4,3.9c2.1,6.5,6.8,12.1,7.1,19.3
	c0,0.2,0.1,0.5,0.2,0.7c1.4,6.2,2.8,12.4,4.2,18.6c1,4.6-0.2,8.6-2.8,12.4c-1,1.4-1.6,3.4-1.6,5.1c0.2,7.9,0.7,15.7,1,23.6
	c0.2,5.1,3.5,8.4,7.8,8.1c4.2-0.3,7-3.9,6.7-8.7c-0.3-6.6-0.8-13.2-1-19.8c-0.2-6.6,0-13.1,0-19.7
	C169.2,110.6,173.2,110.6,177.2,110.6z M17.7,90.1c0.3,0.1,0.7,0.1,1,0.2c0,1.6,0,3.2,0,4.7c0.4,17.1,0.8,34.2,1.4,51.3
	c0.2,4.8,2.6,7.4,6.3,7.2c3.8-0.2,6-2.9,5.8-7.6c-0.3-8.6-0.7-17.2-1-25.8c-0.1-2.3,0-4.6,0-6.9c3.9,0,7.2,0,10.7,0
	c0,0.9,0.1,1.7,0.1,2.4c-0.3,10-0.7,20-1.1,29.9c-0.2,4.8,2,7.9,5.8,8.1c3.7,0.2,6.3-2.7,6.6-7.5c0.2-3.7,0.6-7.5,0.6-11.2
	c0-5.9,1.3-11.9-2.3-17.4c-1-1.5-1-4-0.6-5.8c2.2-10.5,4.3-21,7.3-31.2c1.2-4.1,0.2-6.2-2.7-8c-1.8-1.1-3.8-2.1-5.8-2.6
	c-9.2-2.3-18.3-2-27.4,0.5c-4.3,1.2-7.9,3.6-9.7,7.6c-2.7,6.3-5.2,12.7-7.2,19.2c-1.3,4.1-1.9,8.5-2.4,12.9
	c-0.4,2.9,1.2,4.8,4.1,5.3c2.8,0.5,4.9-0.8,5.7-3.6c0.3-1.1,0.4-2.2,0.7-3.3C14.9,102.4,16.3,96.3,17.7,90.1z M128.3,27.8
	c0-14.1-11.3-25.6-25.4-25.5c-14,0-25.6,11.6-25.5,25.6c0.1,13.9,11.4,25.3,25.3,25.4C116.7,53.3,128.2,41.9,128.3,27.8z
	 M194.3,29.8c-0.1-12.7-10.6-23.1-23.3-23c-12.5,0.1-22.8,10.4-22.9,23c-0.1,12.9,10.5,23.4,23.3,23.3
	C184.2,53,194.3,42.6,194.3,29.8z M36.7,64.6c10.7-0.1,19.3-8.7,19.3-19.3c0-10.8-8.8-19.5-19.6-19.4C25.6,26,17.1,34.8,17.2,45.6
	C17.3,56.3,26,64.7,36.7,64.6z"/>
<path class="st1" d="M126.5,88.1c-0.1,1.3-0.2,2.7-0.2,4c-0.6,23-1.2,45.9-1.9,68.9c-0.2,5.9-4.1,9.3-9.4,8.5
	c-4.3-0.6-6.7-4.1-6.5-9.4c0.5-13.1,1-26.2,1.5-39.3c0.1-1.4,0-2.7,0-4.3c-4.8,0-9.3,0-14.2,0c0,3.5-0.1,7,0,10.6
	c0.4,10.9,0.8,21.7,1.4,32.6c0.3,5.6-2.5,9.5-7.4,9.9c-5.1,0.4-8.6-3.1-8.8-8.9c-0.6-23.5-1.1-46.9-1.6-70.4c0-1.3,0-2.6,0-3.9
	c-0.4-0.1-0.8-0.1-1.2-0.2c-1.9,7.8-3.7,15.6-5.6,23.4c-0.4,1.7-0.5,3.5-0.9,5.2c-0.9,3.4-4.1,5.5-7.3,5.1c-3.5-0.5-6.2-3.6-5.8-7.1
	c1.9-14.3,5.2-28.1,12-41c3.9-7.4,10.5-10.8,18.3-12.2c9.3-1.7,18.6-1.9,27.9-0.2c8.7,1.5,14.8,6,18.7,13.9
	c4.8,9.8,7.8,20.1,10,30.8c0.5,2.7,1.2,5.4,1.5,8.1c0.5,4-1.8,7.1-5.4,7.8c-3.4,0.7-6.7-1.6-7.7-5.5c-1.8-7-3.3-14.1-5-21.1
	c-0.4-1.7-1.1-3.4-1.7-5.1C127,88.1,126.7,88.1,126.5,88.1z"/>
<path class="st2" d="M177.2,110.6c-4,0-8,0-12.2,0c0,6.6-0.1,13.2,0,19.7c0.2,6.6,0.6,13.2,1,19.8c0.3,4.8-2.5,8.4-6.7,8.7
	c-4.3,0.3-7.6-3-7.8-8.1c-0.4-7.9-0.9-15.7-1-23.6c0-1.7,0.6-3.6,1.6-5.1c2.6-3.8,3.8-7.8,2.8-12.4c-1.4-6.2-2.8-12.4-4.2-18.6
	c-0.1-0.2-0.2-0.5-0.2-0.7c-0.3-7.2-5-12.8-7.1-19.3c-0.4-1.2-0.2-2.9,0.4-3.9c2.3-3.8,5.9-6,10.1-7.2c10.9-3.1,21.9-3.4,32.9-0.7
	c5.3,1.3,9.5,4.3,12.3,9.1c6.9,12,9.8,25.3,12.2,38.7c0.6,3.2-1.9,5.9-5,6.4c-3.4,0.5-6.1-1.2-6.9-4.8c-1.6-6.3-3-12.6-4.5-18.9
	c-0.4-1.6-1-3.2-1.6-4.9c-0.3,0-0.6,0.1-1,0.1c0,6.5,0.1,13,0,19.5c-0.3,14.2-0.8,28.5-1.2,42.7c0,1.6-0.2,3.2-0.4,4.9
	c-0.6,4.5-3.7,7.2-7.8,6.8c-4.1-0.3-6.8-3.5-6.7-8c0.2-6.9,0.8-13.7,1-20.6C177.3,123.8,177.2,117.2,177.2,110.6z"/>
<path class="st2" d="M17.7,90.1c-1.4,6.1-2.9,12.2-4.3,18.3c-0.3,1.1-0.4,2.2-0.7,3.3c-0.8,2.8-2.9,4.1-5.7,3.6
	c-2.9-0.5-4.5-2.5-4.1-5.3c0.6-4.3,1.1-8.7,2.4-12.9c2.1-6.5,4.5-12.9,7.2-19.2c1.8-4.1,5.4-6.4,9.7-7.6c9.1-2.6,18.2-2.9,27.4-0.5
	c2,0.5,4,1.4,5.8,2.6c2.9,1.9,4,3.9,2.7,8c-3,10.2-5.1,20.8-7.3,31.2c-0.4,1.8-0.4,4.3,0.6,5.8c3.6,5.5,2.4,11.5,2.3,17.4
	c0,3.7-0.4,7.5-0.6,11.2c-0.3,4.8-2.8,7.7-6.6,7.5c-3.8-0.2-6-3.4-5.8-8.1c0.4-10,0.7-20,1.1-29.9c0-0.7-0.1-1.5-0.1-2.4
	c-3.5,0-6.8,0-10.7,0c0,2.3-0.1,4.6,0,6.9c0.3,8.6,0.8,17.2,1,25.8c0.2,4.7-2,7.4-5.8,7.6c-3.7,0.2-6.1-2.4-6.3-7.2
	c-0.5-17.1-0.9-34.2-1.4-51.3c0-1.6,0-3.2,0-4.7C18.4,90.3,18,90.2,17.7,90.1z"/>
<path class="st1" d="M128.3,27.8c0,14.1-11.6,25.5-25.6,25.4C88.8,53,77.5,41.6,77.4,27.8c-0.1-14,11.5-25.5,25.5-25.6
	C116.9,2.2,128.3,13.6,128.3,27.8z"/>
<path class="st2" d="M194.3,29.8c0.1,12.8-10.1,23.2-22.8,23.4c-12.8,0.1-23.4-10.5-23.3-23.3c0.1-12.6,10.3-22.9,22.9-23
	C183.7,6.7,194.2,17.1,194.3,29.8z"/>
<path class="st2" d="M36.7,64.6c-10.7,0.1-19.4-8.4-19.5-19C17.1,34.8,25.6,26,36.4,25.9c10.8-0.1,19.6,8.6,19.6,19.4
	C56.1,55.9,47.4,64.6,36.7,64.6z"/>
</svg>
