<?xml version="1.0" encoding="utf-8"?>
<!-- Generator: Adobe Illustrator 19.0.0, SVG Export Plug-In . SVG Version: 6.00 Build 0)  -->
<svg version="1.1" id="Layer_1" xmlns="http://www.w3.org/2000/svg" xmlns:xlink="http://www.w3.org/1999/xlink" x="0px" y="0px"
	 viewBox="0 0 97.4 176.4" style="enable-background:new 0 0 97.4 176.4;" xml:space="preserve">
<style type="text/css">
	.st0{fill:#F8F8F8;stroke:#020202;stroke-width:9;stroke-miterlimit:10;}
</style>
<path class="st0" d="M72.4,90.4c-0.1,1.3-0.2,2.7-0.2,4c-0.6,23-1.2,45.9-1.9,68.9c-0.2,5.9-4.1,9.3-9.4,8.5
	c-4.3-0.6-6.7-4.1-6.5-9.4c0.5-13.1,1-26.2,1.5-39.3c0.1-1.4,0-2.7,0-4.3c-4.8,0-9.3,0-14.2,0c0,3.5-0.1,7,0,10.6
	c0.4,10.9,0.8,21.7,1.4,32.6c0.3,5.6-2.5,9.5-7.4,9.9c-5.1,0.4-8.6-3.1-8.8-8.9c-0.6-23.5-1.1-46.9-1.6-70.4c0-1.3,0-2.6,0-3.9
	c-0.4-0.1-0.8-0.1-1.2-0.2c-1.9,7.8-3.7,15.6-5.6,23.4c-0.4,1.7-0.5,3.5-0.9,5.2c-0.9,3.4-4.1,5.5-7.3,5.1c-3.5-0.5-6.2-3.6-5.8-7.1
	c1.9-14.3,5.2-28.1,12-41c3.9-7.4,10.5-10.8,18.3-12.2c9.3-1.7,18.6-1.9,27.9-0.2c8.7,1.5,14.8,6,18.7,13.9
	c4.8,9.8,7.8,20.1,10,30.8c0.5,2.7,1.2,5.4,1.5,8.1c0.5,4-1.8,7.1-5.4,7.8c-3.4,0.7-6.7-1.6-7.7-5.5c-1.8-7-3.3-14.1-5-21.1
	c-0.4-1.7-1.1-3.4-1.7-5.1C72.9,90.3,72.6,90.4,72.4,90.4z"/>
<path class="st0" d="M74.2,30c0,14.1-11.6,25.5-25.6,25.4c-13.9-0.1-25.2-11.5-25.3-25.4c-0.1-14,11.5-25.5,25.5-25.6
	C62.8,4.5,74.2,15.9,74.2,30z"/>
</svg>
